<svg width="32" height="32" viewBox="0 0 32 32" fill="none" xmlns="http://www.w3.org/2000/svg">
<path d="M25.296 1.14549L16 10.442C12.9015 7.34449 9.80199 4.24399 6.70299 1.14549C3.11799 -2.43951 -2.43901 3.11949 1.14299 6.70549C4.24249 9.80199 7.34299 12.903 10.439 16.0015C7.34157 19.1014 4.24291 22.2001 1.14299 25.2975C-2.43901 28.8815 3.11849 34.439 6.70299 30.8575C9.80149 27.758 12.901 24.658 15.9995 21.5605L25.2955 30.8575C28.8805 34.4415 34.439 28.882 30.8555 25.2975C27.756 22.198 24.6575 19.0995 21.557 16.0005C24.657 12.901 27.7555 9.80149 30.8555 6.70249C34.4395 3.11949 28.881 -2.43951 25.2955 1.14749" fill="#EC1C24"/>
</svg>
